<svg xmlns="http://www.w3.org/2000/svg" xmlns:xlink="http://www.w3.org/1999/xlink">
    <symbol xmlns="http://www.w3.org/2000/svg" viewBox="0 0 22 22" id="grid">
        <rect width="5.366" height="5.366" rx="1"/>
        <rect y="8.317" width="5.366" height="5.366" rx="1"/>
        <rect y="16.634" width="5.366" height="5.366" rx="1"/>
        <rect x="8.316" width="5.366" height="5.366" rx="1"/>
        <rect x="8.316" y="8.317" width="5.366" height="5.366" rx="1"/>
        <rect x="8.316" y="16.634" width="5.366" height="5.366" rx="1"/>
        <rect x="16.633" width="5.366" height="5.366" rx="1"/>
        <rect x="16.633" y="8.317" width="5.366" height="5.366" rx="1"/>
        <rect x="16.633" y="16.634" width="5.366" height="5.366" rx="1"/>
    </symbol>
    <symbol xmlns="http://www.w3.org/2000/svg" viewBox="0 0 24 24" id="angle-left">
        <path fill-rule="evenodd" clip-rule="evenodd" d="M14.293 5.293l1.414 1.414L10.414 12l5.293 5.293-1.414 1.414L7.586 12l6.707-6.707z"/>
    </symbol>
    <symbol xmlns="http://www.w3.org/2000/svg" viewBox="0 0 24 24" id="angle-right">
        <path fill-rule="evenodd" clip-rule="evenodd" d="M9.707 5.293L16.414 12l-6.707 6.707-1.414-1.414L13.586 12 8.293 6.707l1.414-1.414z"/>
    </symbol>
</svg>
