<svg width="25" height="26" viewBox="0 0 25 26" fill="none" xmlns="http://www.w3.org/2000/svg">
<path d="M1.57459 3.36276H2.76244L7.09946 17.1606C7.29283 17.8255 7.90057 18.2688 8.59118 18.2688H20.3039C20.9945 18.2688 21.6023 17.8255 21.7956 17.1606L24.9172 6.96459C25.1658 6.1334 24.6962 5.24679 23.8951 4.99744C23.757 4.96973 23.5912 4.94202 23.4255 4.94202H6.51935L5.38675 1.34019C5.19338 0.675236 4.58565 0.231934 3.89504 0.231934H1.57459C0.690609 0.231934 0 0.924594 0 1.8112C0 2.6978 0.690609 3.36276 1.57459 3.36276ZM21.326 8.07285L19.1437 15.1103H9.7514L7.54145 8.07285H21.326ZM10.1658 25.3062C8.86742 25.3062 7.8177 24.2534 7.8177 22.9512C7.8177 21.649 8.86742 20.5961 10.1658 20.5961C11.4641 20.5961 12.5138 21.649 12.5138 22.9512C12.4862 24.2534 11.4365 25.3062 10.1658 25.3062ZM16.4089 22.9512C16.4089 21.649 17.4586 20.5961 18.7569 20.5961C20.0553 20.5961 21.105 21.649 21.105 22.9512C21.105 24.2534 20.0553 25.3062 18.7569 25.3062C17.4586 25.3062 16.4089 24.2534 16.4089 22.9512Z" fill="white"/>
</svg>
