<svg width="15" height="15" viewBox="0 0 15 15" fill="none" xmlns="http://www.w3.org/2000/svg">
<path d="M12.7629 2.62246H9.94389V2.21685C9.94389 1.54763 9.39626 1 8.72704 1H6.25273C5.58351 1 5.03588 1.54763 5.03588 2.21685V2.62246H2.21685C1.54763 2.62246 1 3.1701 1 3.83931V4.38695C1 5.05616 1.54763 5.6038 2.21685 5.6038H2.66308L3.55541 12.9252C3.63651 13.5336 4.14353 14 4.75195 14H10.2075C10.8159 14 11.3432 13.5336 11.4243 12.9252L12.3167 5.6038H12.7629C13.4321 5.6038 13.9797 5.05616 13.9797 4.38695V3.83931C13.9797 3.1701 13.4321 2.62246 12.7629 2.62246H12.7629ZM5.84717 2.21685C5.84717 1.99374 6.02967 1.81123 6.25278 1.81123H8.74727C8.97038 1.81123 9.15289 1.99374 9.15289 2.21685V2.62246H5.84711L5.84717 2.21685ZM10.6132 12.8034C10.5929 13.0062 10.4103 13.1684 10.2075 13.1684H4.752C4.54919 13.1684 4.36669 13.0062 4.34639 12.8034L3.47436 5.58346H11.4853L10.6132 12.8034ZM13.1685 4.3869C13.1685 4.61 12.986 4.79251 12.7629 4.79251H2.2169C1.99379 4.79251 1.81128 4.61 1.81128 4.3869V3.83926C1.81128 3.61615 1.99379 3.43365 2.2169 3.43365H12.7629C12.986 3.43365 13.1685 3.61615 13.1685 3.83926V4.3869Z" fill="#FDA817" stroke="#FDA817" stroke-width="0.2"/>
<path d="M9.41651 7.22622L9.09199 11.688C9.07169 11.8908 8.88918 12.053 8.68637 12.053H8.66607C8.44296 12.0327 8.28076 11.8502 8.28076 11.6271L8.60528 7.1653C8.62558 6.94219 8.80809 6.77999 9.0312 6.8003C9.25432 6.82061 9.43682 7.00311 9.41651 7.22622H9.41651Z" fill="#FDA817" stroke="#FDA817" stroke-width="0.2"/>
<path d="M6.69902 11.6272C6.71932 11.8503 6.53681 12.0531 6.33401 12.0531H6.31371C6.1109 12.0531 5.9284 11.8909 5.90809 11.6881L5.58358 7.2263C5.56328 7.00319 5.74578 6.80038 5.96889 6.80038C6.192 6.78008 6.39481 6.96258 6.39481 7.16538L6.69902 11.6272Z" fill="#FDA817" stroke="#FDA817" stroke-width="0.2"/>
</svg>
