<svg width="200" height="53" viewBox="0 0 200 53" fill="none" xmlns="http://www.w3.org/2000/svg">
<path d="M34.2279 35.533C34.2279 35.533 35.828 35.4703 37.1995 35.4703C38.571 35.4703 40.2542 35.533 40.2542 35.533C41.0023 35.533 41.6257 34.927 41.6257 34.1957V14.0109C41.6257 13.2795 41.0231 12.6736 40.2542 12.6736C40.2542 12.6736 38.6126 12.7363 37.1995 12.7363C35.7865 12.7363 34.2279 12.6736 34.2279 12.6736C33.4799 12.6736 32.8564 13.2795 32.8564 14.0109V34.1957C32.8564 34.927 33.4591 35.533 34.2279 35.533Z" fill="white"/>
<path d="M32.3154 4.73339C32.3154 7.24082 34.4974 9.24677 37.2196 9.24677C39.9418 9.24677 42.1445 7.21992 42.1445 4.73339C42.1445 2.20506 39.921 0.178223 37.2196 0.178223C34.5181 0.178223 32.3154 2.20506 32.3154 4.73339Z" fill="#FFC800"/>
<path d="M87.446 11.8589C78.7598 11.8589 73.918 17.2917 73.918 24.0826C73.918 31.0407 78.926 36.2854 87.446 36.2854C96.2361 36.2854 100.995 31.0407 100.995 24.0826C100.995 17.3125 96.0282 11.8589 87.446 11.8589ZM87.4668 29.6825C83.8925 29.6825 81.9184 27.1751 81.9184 24.1453C81.9184 21.0737 83.9133 18.5454 87.4668 18.5454C90.9994 18.5454 93.0359 21.0737 93.0359 24.1453C93.0359 27.1751 90.9994 29.6825 87.4668 29.6825Z" fill="white"/>
<path d="M135.802 31.166C135.802 33.6734 137.984 35.6794 140.706 35.6794C143.428 35.6794 145.631 33.6734 145.631 31.166C145.631 28.6377 143.428 26.6108 140.706 26.6108C137.984 26.6108 135.802 28.6586 135.802 31.166Z" fill="#FFC800"/>
<path d="M123.936 35.5328C123.936 35.5328 125.204 35.4701 126.866 35.4701C128.528 35.4701 129.796 35.5328 129.796 35.5328C130.544 35.5328 131.167 34.9269 131.167 34.1955L131.188 23.0793C131.209 16.6226 128.362 12.2346 120.86 12.2346C117.286 12.2346 114.855 13.4674 112.902 15.2853C111.655 13.4883 109.327 12.5063 106.397 12.5063C105.732 12.5063 105.441 12.8824 105.441 13.4048C105.441 13.4048 105.566 16.9569 105.566 19.6733C105.566 21.7002 105.566 34.1955 105.566 34.1955C105.566 34.9269 106.169 35.5328 106.938 35.5328C106.938 35.5328 108.455 35.4701 109.93 35.4701C111.405 35.4701 112.922 35.5328 112.922 35.5328C113.67 35.5328 114.294 34.9269 114.294 34.1955V24.124C114.294 20.9688 115.935 19.339 118.595 19.339C121.214 19.339 122.606 20.927 122.606 24.2703V34.1955C122.564 34.9269 123.167 35.5328 123.936 35.5328Z" fill="white"/>
<path d="M178.485 12.7153C178.485 12.7153 177.092 12.778 175.555 12.778C174.017 12.778 172.625 12.7153 172.625 12.7153C171.877 12.7153 171.253 13.3213 171.253 14.0526L171.232 25.1689C171.232 32.0434 174.059 36.0135 181.56 36.0135C185.134 36.0135 187.566 34.8434 189.519 33.0464C190.662 35.0733 192.948 36.0135 195.462 36.0135C196.522 36.0135 197 35.8255 197 35.115C197 35.115 196.875 32.0852 196.875 28.6793C196.875 25.2734 196.875 14.0735 196.875 14.0735C196.875 13.3422 196.273 12.7362 195.504 12.7362C195.504 12.7362 194.257 12.7989 192.511 12.7989C190.766 12.7989 189.519 12.7153 189.519 12.7153C188.771 12.7153 188.148 13.3213 188.148 14.0526V23.1212C188.148 27.0495 186.173 28.8883 183.846 28.8883C180.958 28.8883 179.835 26.9241 179.835 24.0406V14.0526C179.835 13.3004 179.233 12.7153 178.485 12.7153Z" fill="white"/>
<path d="M157.579 15.2856C156.333 13.4886 154.213 12.5066 151.138 12.5066C150.452 12.5066 150.161 12.8827 150.182 13.4051C150.182 13.4051 150.306 16.5393 150.306 19.6736C150.306 22.8079 150.327 34.1958 150.327 34.1958C150.327 34.9272 150.93 35.5331 151.699 35.5331C151.699 35.5331 153.174 35.4705 154.67 35.4705C156.166 35.4705 157.642 35.5331 157.642 35.5331C158.39 35.5331 159.013 34.9272 159.013 34.1958V23.1005C159.013 20.9691 160.821 19.7154 164.603 19.7154C165.081 19.7154 165.559 19.7363 166.037 19.7781C166.702 19.8199 167.263 19.3184 167.263 18.6707V12.8409C167.263 12.3394 166.993 12.1304 166.598 12.026C166.203 11.9424 165.808 11.9424 165.601 11.9424C162.297 11.9424 159.2 13.4468 157.642 15.1603L157.579 15.2856Z" fill="white"/>
<path d="M55.4444 35.5329C55.4444 35.5329 57.1899 35.4702 58.6445 35.4702C60.0992 35.4702 61.9278 35.5329 61.9278 35.5329C62.5513 35.5329 63.1331 35.1777 63.3825 34.6135L72.7752 13.9272C73.0453 13.3421 72.8791 12.6735 71.944 12.6735C71.944 12.6735 70.2192 12.7362 68.8061 12.7362C67.3931 12.7362 65.7306 12.6735 65.7306 12.6735C64.6916 12.6735 64.089 13.175 63.7773 13.9272L58.8523 25.8584L53.782 13.8854C53.4702 13.1332 52.8676 12.6526 51.8286 12.6526C51.8286 12.6526 50.0623 12.7153 48.5869 12.7153C47.1115 12.7153 45.3451 12.6526 45.3451 12.6526C44.4308 12.6526 44.2438 13.3212 44.5139 13.9063L53.969 34.5926C54.2599 35.1777 54.821 35.5329 55.4444 35.5329Z" fill="white"/>
<path d="M12.0134 35.5329C12.0134 35.5329 13.759 35.4702 15.2136 35.4702C16.6682 35.4702 18.4969 35.5329 18.4969 35.5329C19.1203 35.5329 19.7022 35.1777 19.9515 34.6135L29.3442 13.9272C29.6144 13.3421 29.4481 12.6735 28.513 12.6735C28.513 12.6735 26.7882 12.7362 25.3752 12.7362C23.9621 12.7362 22.2997 12.6735 22.2997 12.6735C21.2607 12.6735 20.6581 13.175 20.3463 13.9272L15.4214 25.8584L10.351 13.8854C10.0393 13.1332 9.43668 12.6526 8.39766 12.6526C8.39766 12.6526 6.63134 12.7153 5.15593 12.7153C3.68053 12.7153 1.93498 12.6735 1.93498 12.6735C1.02065 12.6735 0.833625 13.3421 1.10377 13.9272L10.5588 34.6135C10.829 35.1777 11.39 35.5329 12.0134 35.5329Z" fill="white"/>
<path d="M0.5265 47.9229C0.5265 47.4783 0.5967 47.061 0.7371 46.671C0.8853 46.2732 1.0959 45.93 1.3689 45.6414C1.6419 45.345 1.9734 45.111 2.3634 44.9394C2.7534 44.7678 3.198 44.682 3.6972 44.682C4.0248 44.682 4.3251 44.7132 4.5981 44.7756C4.8711 44.8302 5.1363 44.9121 5.3937 45.0213L5.031 46.4136C4.8672 46.3512 4.6878 46.2966 4.4928 46.2498C4.2978 46.203 4.0794 46.1796 3.8376 46.1796C3.3228 46.1796 2.9367 46.3395 2.6793 46.6593C2.4297 46.9791 2.3049 47.4003 2.3049 47.9229C2.3049 48.4767 2.4219 48.9057 2.6559 49.2099C2.8977 49.5141 3.315 49.6662 3.9078 49.6662C4.1184 49.6662 4.3446 49.6467 4.5864 49.6077C4.8282 49.5687 5.0505 49.5063 5.2533 49.4205L5.499 50.8479C5.2962 50.9337 5.0427 51.0078 4.7385 51.0702C4.4343 51.1326 4.0989 51.1638 3.7323 51.1638C3.1707 51.1638 2.6871 51.0819 2.2815 50.9181C1.8759 50.7465 1.5405 50.5164 1.2753 50.2278C1.0179 49.9392 0.8268 49.5999 0.702 49.2099C0.585 48.8121 0.5265 48.3831 0.5265 47.9229ZM9.22979 49.7832C9.40139 49.7832 9.56519 49.7793 9.72119 49.7715C9.87719 49.7637 10.002 49.752 10.0956 49.7364V48.4143C10.0254 48.3987 9.92009 48.3831 9.77969 48.3675C9.63929 48.3519 9.51059 48.3441 9.39359 48.3441C9.22979 48.3441 9.07379 48.3558 8.92559 48.3792C8.78519 48.3948 8.66039 48.4299 8.55119 48.4845C8.44199 48.5391 8.35619 48.6132 8.29379 48.7068C8.23139 48.8004 8.20019 48.9174 8.20019 49.0578C8.20019 49.3308 8.28989 49.5219 8.46929 49.6311C8.65649 49.7325 8.90999 49.7832 9.22979 49.7832ZM9.08939 44.682C9.60419 44.682 10.0332 44.7405 10.3764 44.8575C10.7196 44.9745 10.9926 45.1422 11.1954 45.3606C11.406 45.579 11.5542 45.8442 11.64 46.1562C11.7258 46.4682 11.7687 46.8153 11.7687 47.1975V50.8245C11.5191 50.8791 11.172 50.9415 10.7274 51.0117C10.2828 51.0897 9.74459 51.1287 9.11279 51.1287C8.71499 51.1287 8.35229 51.0936 8.02469 51.0234C7.70489 50.9532 7.42799 50.8401 7.19399 50.6841C6.95999 50.5203 6.78059 50.3097 6.65579 50.0523C6.53099 49.7949 6.46859 49.479 6.46859 49.1046C6.46859 48.7458 6.53879 48.4416 6.67919 48.192C6.82739 47.9424 7.02239 47.7435 7.26419 47.5953C7.50599 47.4471 7.78289 47.3418 8.09489 47.2794C8.40689 47.2092 8.73059 47.1741 9.06599 47.1741C9.29219 47.1741 9.49109 47.1858 9.66269 47.2092C9.84209 47.2248 9.98639 47.2482 10.0956 47.2794V47.1156C10.0956 46.8192 10.0059 46.5813 9.82649 46.4019C9.64709 46.2225 9.33509 46.1328 8.89049 46.1328C8.59409 46.1328 8.30159 46.1562 8.01299 46.203C7.72439 46.242 7.47479 46.3005 7.26419 46.3785L7.04189 44.9745C7.14329 44.9433 7.26809 44.9121 7.41629 44.8809C7.57229 44.8419 7.73999 44.8107 7.91939 44.7873C8.09879 44.7561 8.28599 44.7327 8.48099 44.7171C8.68379 44.6937 8.88659 44.682 9.08939 44.682ZM18.8543 51H17.111V48.5664H15.2975V51H13.5542V44.8458H15.2975V47.139H17.111V44.8458H18.8543V51ZM25.7882 46.2732H23.8226V51H22.0793V46.2732H20.1137V44.8458H25.7882V46.2732ZM26.7624 47.9697C26.7624 47.4237 26.8443 46.9479 27.0081 46.5423C27.1797 46.1289 27.402 45.7857 27.675 45.5127C27.948 45.2397 28.26 45.033 28.611 44.8926C28.9698 44.7522 29.3364 44.682 29.7108 44.682C30.5844 44.682 31.2747 44.9511 31.7817 45.4893C32.2887 46.0197 32.5422 46.8036 32.5422 47.841C32.5422 47.9424 32.5383 48.0555 32.5305 48.1803C32.5227 48.2973 32.5149 48.4026 32.5071 48.4962H28.5525C28.5915 48.855 28.7592 49.1397 29.0556 49.3503C29.352 49.5609 29.7498 49.6662 30.249 49.6662C30.5688 49.6662 30.8808 49.6389 31.185 49.5843C31.497 49.5219 31.7505 49.4478 31.9455 49.362L32.1795 50.7777C32.0859 50.8245 31.9611 50.8713 31.8051 50.9181C31.6491 50.9649 31.4736 51.0039 31.2786 51.0351C31.0914 51.0741 30.8886 51.1053 30.6702 51.1287C30.4518 51.1521 30.2334 51.1638 30.015 51.1638C29.4612 51.1638 28.9776 51.0819 28.5642 50.9181C28.1586 50.7543 27.8193 50.532 27.5463 50.2512C27.2811 49.9626 27.0822 49.6233 26.9496 49.2333C26.8248 48.8433 26.7624 48.4221 26.7624 47.9697ZM30.8574 47.3028C30.8496 47.1546 30.8223 47.0103 30.7755 46.8699C30.7365 46.7295 30.6702 46.6047 30.5766 46.4955C30.4908 46.3863 30.3777 46.2966 30.2373 46.2264C30.1047 46.1562 29.937 46.1211 29.7342 46.1211C29.5392 46.1211 29.3715 46.1562 29.2311 46.2264C29.0907 46.2888 28.9737 46.3746 28.8801 46.4838C28.7865 46.593 28.7124 46.7217 28.6578 46.8699C28.611 47.0103 28.5759 47.1546 28.5525 47.3028H30.8574ZM36.3705 46.7178L37.5873 44.8458H39.3891L37.2831 47.8059C37.7511 48.3909 38.1762 48.9603 38.5584 49.5141C38.9406 50.0679 39.2448 50.5632 39.471 51H37.599C37.5366 50.883 37.4586 50.7387 37.365 50.5671C37.2714 50.3877 37.1661 50.2044 37.0491 50.0172C36.9321 49.8222 36.8073 49.6311 36.6747 49.4439C36.5499 49.2489 36.4251 49.0734 36.3003 48.9174C36.1833 49.0656 36.0624 49.2294 35.9376 49.4088C35.8206 49.5882 35.7075 49.7715 35.5983 49.9587C35.4891 50.1381 35.3799 50.3175 35.2707 50.4969C35.1693 50.6763 35.0796 50.844 35.0016 51H33.2232C33.3168 50.805 33.4455 50.5749 33.6093 50.3097C33.7731 50.0445 33.9486 49.7715 34.1358 49.4907C34.3308 49.2021 34.5336 48.9174 34.7442 48.6366C34.9548 48.348 35.1615 48.0789 35.3643 47.8293C35.0133 47.3379 34.6623 46.8426 34.3113 46.3434C33.9603 45.8364 33.6132 45.3372 33.27 44.8458H35.1537L36.3705 46.7178ZM45.9128 51H44.1695V48.5664H42.356V51H40.6127V44.8458H42.356V47.139H44.1695V44.8458H45.9128V51ZM53.3615 44.8458V51H51.6065C51.6065 50.61 51.6104 50.2239 51.6182 49.8417C51.626 49.4517 51.6338 49.0929 51.6416 48.7653C51.6494 48.4377 51.6572 48.153 51.665 47.9112C51.6806 47.6616 51.6884 47.4783 51.6884 47.3613C51.4622 47.6811 51.236 48.0048 51.0098 48.3324C50.7836 48.66 50.5652 48.9837 50.3546 49.3035C50.1518 49.6155 49.9568 49.9158 49.7696 50.2044C49.5902 50.493 49.4303 50.7582 49.2899 51H47.7572V44.8458H49.5005C49.5005 45.2358 49.4966 45.6102 49.4888 45.969C49.4888 46.32 49.4849 46.6398 49.4771 46.9284C49.4693 47.217 49.4615 47.4705 49.4537 47.6889C49.4459 47.8995 49.442 48.0633 49.442 48.1803C49.91 47.4939 50.339 46.8777 50.729 46.3317C51.1268 45.7857 51.5129 45.2904 51.8873 44.8458H53.3615ZM56.9536 46.9986C57.1252 46.8348 57.3046 46.6554 57.4918 46.4604C57.6868 46.2654 57.874 46.0743 58.0534 45.8871C58.2328 45.6921 58.4044 45.5049 58.5682 45.3255C58.732 45.1461 58.8763 44.9862 59.0011 44.8458H61.1188C60.9628 45.0096 60.7678 45.2124 60.5338 45.4542C60.3076 45.696 60.0658 45.9495 59.8084 46.2147C59.551 46.4721 59.2897 46.7295 59.0245 46.9869C58.7671 47.2443 58.5214 47.4744 58.2874 47.6772C58.5214 47.8566 58.771 48.0789 59.0362 48.3441C59.3014 48.6093 59.5588 48.894 59.8084 49.1982C60.0658 49.5024 60.3076 49.8105 60.5338 50.1225C60.7678 50.4345 60.9667 50.727 61.1305 51H59.1415C59.0011 50.7894 58.8412 50.571 58.6618 50.3448C58.4824 50.1108 58.2952 49.8846 58.1002 49.6662C57.9052 49.44 57.7063 49.2294 57.5035 49.0344C57.3085 48.8394 57.1252 48.6717 56.9536 48.5313V51H55.2103V44.8458H56.9536V46.9986ZM64.5123 49.7832C64.6839 49.7832 64.8477 49.7793 65.0037 49.7715C65.1597 49.7637 65.2845 49.752 65.3781 49.7364V48.4143C65.3079 48.3987 65.2026 48.3831 65.0622 48.3675C64.9218 48.3519 64.7931 48.3441 64.6761 48.3441C64.5123 48.3441 64.3563 48.3558 64.2081 48.3792C64.0677 48.3948 63.9429 48.4299 63.8337 48.4845C63.7245 48.5391 63.6387 48.6132 63.5763 48.7068C63.5139 48.8004 63.4827 48.9174 63.4827 49.0578C63.4827 49.3308 63.5724 49.5219 63.7518 49.6311C63.939 49.7325 64.1925 49.7832 64.5123 49.7832ZM64.3719 44.682C64.8867 44.682 65.3157 44.7405 65.6589 44.8575C66.0021 44.9745 66.2751 45.1422 66.4779 45.3606C66.6885 45.579 66.8367 45.8442 66.9225 46.1562C67.0083 46.4682 67.0512 46.8153 67.0512 47.1975V50.8245C66.8016 50.8791 66.4545 50.9415 66.0099 51.0117C65.5653 51.0897 65.0271 51.1287 64.3953 51.1287C63.9975 51.1287 63.6348 51.0936 63.3072 51.0234C62.9874 50.9532 62.7105 50.8401 62.4765 50.6841C62.2425 50.5203 62.0631 50.3097 61.9383 50.0523C61.8135 49.7949 61.7511 49.479 61.7511 49.1046C61.7511 48.7458 61.8213 48.4416 61.9617 48.192C62.1099 47.9424 62.3049 47.7435 62.5467 47.5953C62.7885 47.4471 63.0654 47.3418 63.3774 47.2794C63.6894 47.2092 64.0131 47.1741 64.3485 47.1741C64.5747 47.1741 64.7736 47.1858 64.9452 47.2092C65.1246 47.2248 65.2689 47.2482 65.3781 47.2794V47.1156C65.3781 46.8192 65.2884 46.5813 65.109 46.4019C64.9296 46.2225 64.6176 46.1328 64.173 46.1328C63.8766 46.1328 63.5841 46.1562 63.2955 46.203C63.0069 46.242 62.7573 46.3005 62.5467 46.3785L62.3244 44.9745C62.4258 44.9433 62.5506 44.9121 62.6988 44.8809C62.8548 44.8419 63.0225 44.8107 63.2019 44.7873C63.3813 44.7561 63.5685 44.7327 63.7635 44.7171C63.9663 44.6937 64.1691 44.682 64.3719 44.682ZM77.4608 44.8458V51H75.7058C75.7058 50.61 75.7097 50.2239 75.7175 49.8417C75.7253 49.4517 75.7331 49.0929 75.7409 48.7653C75.7487 48.4377 75.7565 48.153 75.7643 47.9112C75.7799 47.6616 75.7877 47.4783 75.7877 47.3613C75.5615 47.6811 75.3353 48.0048 75.1091 48.3324C74.8829 48.66 74.6645 48.9837 74.4539 49.3035C74.2511 49.6155 74.0561 49.9158 73.8689 50.2044C73.6895 50.493 73.5296 50.7582 73.3892 51H71.8565V44.8458H73.5998C73.5998 45.2358 73.5959 45.6102 73.5881 45.969C73.5881 46.32 73.5842 46.6398 73.5764 46.9284C73.5686 47.217 73.5608 47.4705 73.553 47.6889C73.5452 47.8995 73.5413 48.0633 73.5413 48.1803C74.0093 47.4939 74.4383 46.8777 74.8283 46.3317C75.2261 45.7857 75.6122 45.2904 75.9866 44.8458H77.4608ZM84.061 47.4549C84.0454 47.7279 84.0298 48.0243 84.0142 48.3441C83.9986 48.6639 83.983 48.9876 83.9674 49.3152C83.9596 49.635 83.9479 49.9431 83.9323 50.2395C83.9245 50.5281 83.9167 50.7816 83.9089 51H82.2124C82.228 50.571 82.2514 50.0874 82.2826 49.5492C82.3216 49.011 82.3606 48.465 82.3996 47.9112C82.4464 47.3496 82.4932 46.8036 82.54 46.2732C82.5946 45.7428 82.6453 45.267 82.6921 44.8458H84.1429C84.4783 45.3918 84.7864 45.9573 85.0672 46.5423C85.348 47.1273 85.6444 47.7708 85.9564 48.4728C86.284 47.724 86.6038 47.0337 86.9158 46.4019C87.2278 45.7623 87.5086 45.2436 87.7582 44.8458H89.2324C89.287 45.267 89.3377 45.7428 89.3845 46.2732C89.4391 46.8036 89.4859 47.3496 89.5249 47.9112C89.5717 48.465 89.6107 49.011 89.6419 49.5492C89.6731 50.0874 89.6965 50.571 89.7121 51H87.9805C87.9649 50.3916 87.9415 49.7871 87.9103 49.1865C87.8869 48.5859 87.8635 48.0048 87.8401 47.4432L86.5531 50.2746H85.348L84.061 47.4549ZM91.1466 47.9697C91.1466 47.4237 91.2285 46.9479 91.3923 46.5423C91.5639 46.1289 91.7862 45.7857 92.0592 45.5127C92.3322 45.2397 92.6442 45.033 92.9952 44.8926C93.354 44.7522 93.7206 44.682 94.095 44.682C94.9686 44.682 95.6589 44.9511 96.1659 45.4893C96.6729 46.0197 96.9264 46.8036 96.9264 47.841C96.9264 47.9424 96.9225 48.0555 96.9147 48.1803C96.9069 48.2973 96.8991 48.4026 96.8913 48.4962H92.9367C92.9757 48.855 93.1434 49.1397 93.4398 49.3503C93.7362 49.5609 94.134 49.6662 94.6332 49.6662C94.953 49.6662 95.265 49.6389 95.5692 49.5843C95.8812 49.5219 96.1347 49.4478 96.3297 49.362L96.5637 50.7777C96.4701 50.8245 96.3453 50.8713 96.1893 50.9181C96.0333 50.9649 95.8578 51.0039 95.6628 51.0351C95.4756 51.0741 95.2728 51.1053 95.0544 51.1287C94.836 51.1521 94.6176 51.1638 94.3992 51.1638C93.8454 51.1638 93.3618 51.0819 92.9484 50.9181C92.5428 50.7543 92.2035 50.532 91.9305 50.2512C91.6653 49.9626 91.4664 49.6233 91.3338 49.2333C91.209 48.8433 91.1466 48.4221 91.1466 47.9697ZM95.2416 47.3028C95.2338 47.1546 95.2065 47.0103 95.1597 46.8699C95.1207 46.7295 95.0544 46.6047 94.9608 46.4955C94.875 46.3863 94.7619 46.2966 94.6215 46.2264C94.4889 46.1562 94.3212 46.1211 94.1184 46.1211C93.9234 46.1211 93.7557 46.1562 93.6153 46.2264C93.4749 46.2888 93.3579 46.3746 93.2643 46.4838C93.1707 46.593 93.0966 46.7217 93.042 46.8699C92.9952 47.0103 92.9601 47.1546 92.9367 47.3028H95.2416ZM103.851 43.4067C103.563 43.4691 103.29 43.512 103.032 43.5354C102.775 43.5588 102.51 43.5939 102.237 43.6407C102.003 43.6797 101.769 43.7382 101.535 43.8162C101.301 43.8942 101.082 44.0034 100.879 44.1438C100.684 44.2764 100.513 44.448 100.365 44.6586C100.216 44.8614 100.111 45.1149 100.049 45.4191C100.556 45.1773 101.047 45.0564 101.523 45.0564C101.897 45.0564 102.244 45.1188 102.564 45.2436C102.884 45.3684 103.161 45.5556 103.395 45.8052C103.637 46.0548 103.824 46.3668 103.956 46.7412C104.097 47.1078 104.167 47.5368 104.167 48.0282C104.167 48.5586 104.089 49.0188 103.933 49.4088C103.777 49.7988 103.563 50.1264 103.29 50.3916C103.024 50.649 102.712 50.844 102.354 50.9766C102.003 51.1014 101.624 51.1638 101.219 51.1638C100.134 51.1638 99.3584 50.8362 98.8904 50.181C98.4223 49.518 98.1883 48.5469 98.1883 47.2677C98.1883 46.4253 98.2702 45.7116 98.434 45.1266C98.5978 44.5338 98.8436 44.0424 99.1712 43.6524C99.4988 43.2546 99.9044 42.9426 100.388 42.7164C100.872 42.4902 101.433 42.3108 102.073 42.1782C102.33 42.1236 102.588 42.0846 102.845 42.0612C103.11 42.03 103.379 41.9832 103.652 41.9208L103.851 43.4067ZM100.014 46.8465C99.998 46.9557 99.9863 47.0805 99.9785 47.2209C99.9785 47.3613 99.9785 47.4861 99.9785 47.5953C99.9785 48.2817 100.072 48.8004 100.259 49.1514C100.454 49.5024 100.778 49.6779 101.23 49.6779C101.613 49.6779 101.905 49.5297 102.108 49.2333C102.311 48.9369 102.412 48.5391 102.412 48.0399C102.412 47.8449 102.389 47.6577 102.342 47.4783C102.295 47.2911 102.221 47.1273 102.12 46.9869C102.018 46.8465 101.893 46.7334 101.745 46.6476C101.597 46.5618 101.421 46.5189 101.219 46.5189C101.016 46.5189 100.801 46.5423 100.575 46.5891C100.357 46.6359 100.17 46.7217 100.014 46.8465ZM105.424 47.9697C105.424 47.4237 105.506 46.9479 105.67 46.5423C105.842 46.1289 106.064 45.7857 106.337 45.5127C106.61 45.2397 106.922 45.033 107.273 44.8926C107.632 44.7522 107.998 44.682 108.373 44.682C109.246 44.682 109.937 44.9511 110.444 45.4893C110.951 46.0197 111.204 46.8036 111.204 47.841C111.204 47.9424 111.2 48.0555 111.192 48.1803C111.185 48.2973 111.177 48.4026 111.169 48.4962H107.214C107.253 48.855 107.421 49.1397 107.717 49.3503C108.014 49.5609 108.412 49.6662 108.911 49.6662C109.231 49.6662 109.543 49.6389 109.847 49.5843C110.159 49.5219 110.412 49.4478 110.607 49.362L110.841 50.7777C110.748 50.8245 110.623 50.8713 110.467 50.9181C110.311 50.9649 110.135 51.0039 109.94 51.0351C109.753 51.0741 109.55 51.1053 109.332 51.1287C109.114 51.1521 108.895 51.1638 108.677 51.1638C108.123 51.1638 107.639 51.0819 107.226 50.9181C106.82 50.7543 106.481 50.532 106.208 50.2512C105.943 49.9626 105.744 49.6233 105.611 49.2333C105.487 48.8433 105.424 48.4221 105.424 47.9697ZM109.519 47.3028C109.511 47.1546 109.484 47.0103 109.437 46.8699C109.398 46.7295 109.332 46.6047 109.238 46.4955C109.153 46.3863 109.04 46.2966 108.899 46.2264C108.767 46.1562 108.599 46.1211 108.396 46.1211C108.201 46.1211 108.033 46.1562 107.893 46.2264C107.753 46.2888 107.636 46.3746 107.542 46.4838C107.448 46.593 107.374 46.7217 107.32 46.8699C107.273 47.0103 107.238 47.1546 107.214 47.3028H109.519ZM115.52 46.2732C115.512 46.4994 115.5 46.7412 115.485 46.9986C115.477 47.2482 115.457 47.5017 115.426 47.7591C115.395 48.0087 115.352 48.2544 115.297 48.4962C115.251 48.738 115.188 48.9642 115.11 49.1748C115.017 49.4244 114.896 49.6584 114.748 49.8768C114.607 50.0874 114.424 50.2785 114.198 50.4501C113.979 50.6217 113.71 50.766 113.39 50.883C113.078 50.9922 112.712 51.0663 112.291 51.1053L112.057 49.6545C112.454 49.5765 112.762 49.4673 112.981 49.3269C113.199 49.1787 113.363 48.9915 113.472 48.7653C113.558 48.5703 113.624 48.3441 113.671 48.0867C113.726 47.8293 113.765 47.5602 113.788 47.2794C113.812 46.9908 113.823 46.6983 113.823 46.4019C113.831 46.1055 113.835 45.8208 113.835 45.5478V44.8458H118.456V51H116.713V46.2732H115.52ZM122.912 49.7832C123.232 49.7832 123.481 49.7247 123.661 49.6077C123.848 49.4829 123.942 49.284 123.942 49.011C123.942 48.8706 123.91 48.7536 123.848 48.66C123.786 48.5586 123.7 48.4806 123.591 48.426C123.481 48.3636 123.353 48.3207 123.205 48.2973C123.064 48.2739 122.912 48.2622 122.748 48.2622C122.631 48.2622 122.503 48.27 122.362 48.2856C122.222 48.3012 122.116 48.3168 122.046 48.3324V49.7364C122.14 49.752 122.265 49.7637 122.421 49.7715C122.577 49.7793 122.74 49.7832 122.912 49.7832ZM122.046 47.0337C122.155 47.0025 122.296 46.9791 122.467 46.9635C122.647 46.9401 122.85 46.9284 123.076 46.9284C123.442 46.9284 123.782 46.9713 124.094 47.0571C124.414 47.1429 124.69 47.2755 124.924 47.4549C125.158 47.6265 125.342 47.8488 125.474 48.1218C125.607 48.387 125.673 48.699 125.673 49.0578C125.673 49.4166 125.611 49.7286 125.486 49.9938C125.361 50.2512 125.182 50.4657 124.948 50.6373C124.714 50.8011 124.433 50.922 124.105 51C123.786 51.0858 123.427 51.1287 123.029 51.1287C122.514 51.1287 122.042 51.1014 121.613 51.0468C121.184 51 120.748 50.922 120.303 50.8128V44.8458H122.046V47.0337ZM129.551 49.5726H130.311C130.53 49.3074 130.698 48.9798 130.815 48.5898C130.939 48.192 131.025 47.7747 131.072 47.3379C131.127 46.8933 131.158 46.4526 131.166 46.0158C131.173 45.579 131.177 45.189 131.177 44.8458H135.974V49.5726H137.016V52.755H135.53V51H131.037V52.755H129.551V49.5726ZM134.231 49.5726V46.2732H132.804C132.788 46.5462 132.768 46.8309 132.745 47.1273C132.729 47.4159 132.694 47.7045 132.64 47.9931C132.593 48.2739 132.527 48.5508 132.441 48.8238C132.355 49.0968 132.242 49.3464 132.102 49.5726H134.231ZM141.253 46.2732C141.245 46.4994 141.233 46.7412 141.218 46.9986C141.21 47.2482 141.19 47.5017 141.159 47.7591C141.128 48.0087 141.085 48.2544 141.031 48.4962C140.984 48.738 140.921 48.9642 140.843 49.1748C140.75 49.4244 140.629 49.6584 140.481 49.8768C140.34 50.0874 140.157 50.2785 139.931 50.4501C139.712 50.6217 139.443 50.766 139.123 50.883C138.811 50.9922 138.445 51.0663 138.024 51.1053L137.79 49.6545C138.187 49.5765 138.496 49.4673 138.714 49.3269C138.932 49.1787 139.096 48.9915 139.205 48.7653C139.291 48.5703 139.357 48.3441 139.404 48.0867C139.459 47.8293 139.498 47.5602 139.521 47.2794C139.545 46.9908 139.556 46.6983 139.556 46.4019C139.564 46.1055 139.568 45.8208 139.568 45.5478V44.8458H144.19V51H142.446V46.2732H141.253ZM148.587 48.8121C148.337 49.1787 148.115 49.5492 147.92 49.9236C147.725 50.2902 147.538 50.649 147.358 51H145.568C145.794 50.493 146.024 50.0289 146.258 49.6077C146.492 49.1865 146.719 48.8238 146.937 48.5196C146.609 48.348 146.348 48.1296 146.153 47.8644C145.958 47.5914 145.861 47.2521 145.861 46.8465C145.861 46.1601 146.106 45.6336 146.598 45.267C147.097 44.9004 147.783 44.7171 148.657 44.7171C148.852 44.7171 149.066 44.7249 149.3 44.7405C149.542 44.7561 149.78 44.7795 150.014 44.8107C150.248 44.8419 150.47 44.877 150.681 44.916C150.899 44.9472 151.083 44.9823 151.231 45.0213V51H149.488V48.8121H148.587ZM149.488 46.0977C149.41 46.0899 149.289 46.0821 149.125 46.0743C148.961 46.0587 148.821 46.0509 148.704 46.0509C148.275 46.0509 147.982 46.125 147.826 46.2732C147.67 46.4136 147.592 46.5969 147.592 46.8231C147.592 46.9635 147.623 47.0844 147.686 47.1858C147.748 47.2794 147.83 47.3574 147.931 47.4198C148.033 47.4744 148.146 47.5134 148.271 47.5368C148.396 47.5602 148.52 47.5719 148.645 47.5719H149.488V46.0977ZM157.841 49.713C157.95 49.7286 158.094 49.7442 158.274 49.7598C158.461 49.7676 158.633 49.7715 158.789 49.7715C159.179 49.7715 159.483 49.7247 159.701 49.6311C159.92 49.5297 160.029 49.3503 160.029 49.0929C160.029 48.8433 159.927 48.6717 159.725 48.5781C159.53 48.4767 159.241 48.426 158.859 48.426H157.841V49.713ZM158.824 47.256C159.112 47.256 159.346 47.2209 159.526 47.1507C159.705 47.0727 159.795 46.9089 159.795 46.6593C159.795 46.4253 159.693 46.2654 159.491 46.1796C159.288 46.0938 159.023 46.0509 158.695 46.0509C158.586 46.0509 158.442 46.0587 158.262 46.0743C158.091 46.0821 157.95 46.0938 157.841 46.1094V47.256H158.824ZM158.765 51.117C158.547 51.117 158.313 51.1092 158.063 51.0936C157.814 51.078 157.568 51.0546 157.326 51.0234C157.084 51 156.854 50.9727 156.636 50.9415C156.425 50.9025 156.246 50.8674 156.098 50.8362V44.9394C156.246 44.9082 156.425 44.8809 156.636 44.8575C156.854 44.8263 157.084 44.799 157.326 44.7756C157.568 44.7522 157.814 44.7366 158.063 44.7288C158.313 44.7132 158.547 44.7054 158.765 44.7054C159.272 44.7054 159.697 44.7561 160.041 44.8575C160.392 44.9589 160.672 45.0915 160.883 45.2553C161.101 45.4191 161.257 45.6024 161.351 45.8052C161.445 46.008 161.491 46.2108 161.491 46.4136C161.491 46.6866 161.425 46.9362 161.292 47.1624C161.16 47.3886 160.992 47.5524 160.789 47.6538C160.899 47.7006 161.008 47.7669 161.117 47.8527C161.234 47.9385 161.339 48.0438 161.433 48.1686C161.526 48.2856 161.601 48.4299 161.655 48.6015C161.718 48.7653 161.749 48.9564 161.749 49.1748C161.749 49.4244 161.698 49.6662 161.597 49.9002C161.503 50.1342 161.339 50.3409 161.105 50.5203C160.871 50.6997 160.563 50.844 160.181 50.9532C159.799 51.0624 159.327 51.117 158.765 51.117ZM165.651 49.7832C165.823 49.7832 165.986 49.7793 166.142 49.7715C166.298 49.7637 166.423 49.752 166.517 49.7364V48.4143C166.447 48.3987 166.341 48.3831 166.201 48.3675C166.061 48.3519 165.932 48.3441 165.815 48.3441C165.651 48.3441 165.495 48.3558 165.347 48.3792C165.206 48.3948 165.082 48.4299 164.972 48.4845C164.863 48.5391 164.777 48.6132 164.715 48.7068C164.653 48.8004 164.621 48.9174 164.621 49.0578C164.621 49.3308 164.711 49.5219 164.891 49.6311C165.078 49.7325 165.331 49.7832 165.651 49.7832ZM165.511 44.682C166.025 44.682 166.454 44.7405 166.798 44.8575C167.141 44.9745 167.414 45.1422 167.617 45.3606C167.827 45.579 167.975 45.8442 168.061 46.1562C168.147 46.4682 168.19 46.8153 168.19 47.1975V50.8245C167.94 50.8791 167.593 50.9415 167.149 51.0117C166.704 51.0897 166.166 51.1287 165.534 51.1287C165.136 51.1287 164.774 51.0936 164.446 51.0234C164.126 50.9532 163.849 50.8401 163.615 50.6841C163.381 50.5203 163.202 50.3097 163.077 50.0523C162.952 49.7949 162.89 49.479 162.89 49.1046C162.89 48.7458 162.96 48.4416 163.1 48.192C163.249 47.9424 163.444 47.7435 163.685 47.5953C163.927 47.4471 164.204 47.3418 164.516 47.2794C164.828 47.2092 165.152 47.1741 165.487 47.1741C165.713 47.1741 165.912 47.1858 166.084 47.2092C166.263 47.2248 166.408 47.2482 166.517 47.2794V47.1156C166.517 46.8192 166.427 46.5813 166.248 46.4019C166.068 46.2225 165.756 46.1328 165.312 46.1328C165.015 46.1328 164.723 46.1562 164.434 46.203C164.146 46.242 163.896 46.3005 163.685 46.3785L163.463 44.9745C163.565 44.9433 163.689 44.9121 163.838 44.8809C163.994 44.8419 164.161 44.8107 164.341 44.7873C164.52 44.7561 164.707 44.7327 164.902 44.7171C165.105 44.6937 165.308 44.682 165.511 44.682ZM175.275 51H173.532V48.5664H171.719V51H169.975V44.8458H171.719V47.139H173.532V44.8458H175.275V51ZM182.42 51H180.677V48.5664H178.863V51H177.12V44.8458H178.863V47.139H180.677V44.8458H182.42V51ZM190.021 47.9112C190.021 48.3948 189.951 48.8394 189.81 49.245C189.67 49.6428 189.467 49.986 189.202 50.2746C188.937 50.5554 188.617 50.7738 188.242 50.9298C187.876 51.0858 187.462 51.1638 187.002 51.1638C186.55 51.1638 186.136 51.0858 185.762 50.9298C185.395 50.7738 185.08 50.5554 184.814 50.2746C184.549 49.986 184.342 49.6428 184.194 49.245C184.046 48.8394 183.972 48.3948 183.972 47.9112C183.972 47.4276 184.046 46.9869 184.194 46.5891C184.35 46.1913 184.561 45.852 184.826 45.5712C185.099 45.2904 185.419 45.072 185.785 44.916C186.16 44.76 186.565 44.682 187.002 44.682C187.447 44.682 187.852 44.76 188.219 44.916C188.593 45.072 188.913 45.2904 189.178 45.5712C189.444 45.852 189.65 46.1913 189.799 46.5891C189.947 46.9869 190.021 47.4276 190.021 47.9112ZM188.242 47.9112C188.242 47.373 188.133 46.9518 187.915 46.6476C187.704 46.3356 187.4 46.1796 187.002 46.1796C186.604 46.1796 186.296 46.3356 186.078 46.6476C185.86 46.9518 185.75 47.373 185.75 47.9112C185.75 48.4494 185.86 48.8784 186.078 49.1982C186.296 49.5102 186.604 49.6662 187.002 49.6662C187.4 49.6662 187.704 49.5102 187.915 49.1982C188.133 48.8784 188.242 48.4494 188.242 47.9112ZM197.185 44.8458V51H195.43C195.43 50.61 195.434 50.2239 195.441 49.8417C195.449 49.4517 195.457 49.0929 195.465 48.7653C195.473 48.4377 195.48 48.153 195.488 47.9112C195.504 47.6616 195.512 47.4783 195.512 47.3613C195.285 47.6811 195.059 48.0048 194.833 48.3324C194.607 48.66 194.388 48.9837 194.178 49.3035C193.975 49.6155 193.78 49.9158 193.593 50.2044C193.413 50.493 193.253 50.7582 193.113 51H191.58V44.8458H193.324C193.324 45.2358 193.32 45.6102 193.312 45.969C193.312 46.32 193.308 46.6398 193.3 46.9284C193.292 47.217 193.285 47.4705 193.277 47.6889C193.269 47.8995 193.265 48.0633 193.265 48.1803C193.733 47.4939 194.162 46.8777 194.552 46.3317C194.95 45.7857 195.336 45.2904 195.71 44.8458H197.185ZM194.412 44.0034C194.162 44.0034 193.92 43.9683 193.686 43.8981C193.46 43.8201 193.253 43.7109 193.066 43.5705C192.879 43.4223 192.723 43.2468 192.598 43.044C192.481 42.8334 192.411 42.5955 192.388 42.3303L193.593 42.0144C193.655 42.3108 193.757 42.5214 193.897 42.6462C194.045 42.771 194.217 42.8334 194.412 42.8334C194.615 42.8334 194.786 42.7788 194.927 42.6696C195.075 42.5526 195.18 42.3381 195.242 42.0261L196.436 42.342C196.412 42.6072 196.338 42.8451 196.214 43.0557C196.097 43.2585 195.944 43.4301 195.757 43.5705C195.578 43.7109 195.371 43.8201 195.137 43.8981C194.903 43.9683 194.661 44.0034 194.412 44.0034Z" fill="white"/>
</svg>
