<svg width="23" height="24" viewBox="0 0 23 24" fill="none" xmlns="http://www.w3.org/2000/svg">
<path d="M8.88636 18.0575C3.97273 18.0575 0 14.0729 0 9.14471C0 4.21647 3.97273 0.231934 8.88636 0.231934C13.8 0.231934 17.7727 4.21647 17.7727 9.14471C17.7727 14.0729 13.8 18.0575 8.88636 18.0575ZM8.88636 2.32906C5.12273 2.32906 2.09091 5.36989 2.09091 9.14471C2.09091 12.9195 5.12273 15.9604 8.88636 15.9604C12.65 15.9604 15.6818 12.9195 15.6818 9.14471C15.6818 5.36989 12.65 2.32906 8.88636 2.32906ZM19.8636 23.3003C19.0273 23.3003 18.2955 22.9857 17.6682 22.3566L15.4727 20.1546C14.2182 18.8963 14.2182 17.0089 15.4727 15.7506C16.7273 14.4924 18.6091 14.4924 19.8636 15.7506L22.0591 17.9526C23.3136 19.2109 23.3136 21.0983 22.0591 22.3566C21.5364 22.9857 20.7 23.3003 19.8636 23.3003Z" fill="white"/>
</svg>
